<?xml version="1.0" encoding="utf-8"?>
<!DOCTYPE svg PUBLIC "-//W3C//DTD SVG 20010904//EN" "http://www.w3.org/TR/2001/REC-SVG-20010904/DTD/svg10.dtd">
<svg version="1.0" xmlns="http://www.w3.org/2000/svg" width="900pt" height="200pt" viewBox="0 0 900 200" style="" preserveAspectRatio="xMidYMid meet">
<g fill="#FE0000FF" stroke="#FE0000FF">
<path d="M 82.500 0.678 C 69.352 1.216 45.510 3.089 38.854 4.106 C 30.731 5.348 22.416 8.289 22.738 9.807 C 22.869 10.424 22.396 10.706 21.687 10.434 C 20.071 9.813 13.152 16.196 9.667 21.523 C 3.447 31.029 0.012 58.949 0.011 100.000 C 0.010 136.939 2.865 164.260 7.890 175.404 C 9.593 179.182 14.446 184.925 19.623 189.290 C 24.718 193.586 35.465 196.009 58.500 198.053 C 77.664 199.755 176.918 200.435 205.621 199.062 C 229.460 197.921 250.253 195.949 254.500 194.426 C 265.944 190.322 273.176 184.533 277.487 176.026 C 280.025 171.018 282.239 160.289 284.201 143.500 C 285.919 128.793 285.919 71.207 284.201 56.500 C 281.208 30.885 278.548 22.548 270.941 14.941 C 261.522 5.522 250.628 3.103 208.195 1.004 C 190.394 0.124 101.670 -0.106 82.500 0.678 M 131.298 66.386 C 140.209 71.549 149.360 76.836 151.633 78.136 C 182.401 95.733 188.958 99.574 188.958 100.000 C 188.958 100.426 182.401 104.267 151.633 121.864 C 149.360 123.164 140.209 128.451 131.298 133.614 C 122.387 138.776 114.850 143.000 114.548 143.000 C 114.247 143.000 114.000 123.650 114.000 100.000 C 114.000 76.350 114.247 57.000 114.548 57.000 C 114.850 57.000 122.387 61.224 131.298 66.386 "/></g>
<g fill="#FAFAFAFF" stroke="#FAFAFAFF">
<path d="M 729.000 96.500 L 729.000 186.000 741.341 186.000 L 753.682 186.000 754.899 180.561 L 756.116 175.123 759.587 178.965 C 768.193 188.491 784.036 190.723 794.386 183.868 C 797.980 181.487 799.740 179.273 802.495 173.664 C 808.116 162.220 809.257 151.662 808.724 116.000 C 808.334 89.830 808.042 85.597 806.134 78.500 C 802.132 63.608 795.528 57.778 782.660 57.778 C 773.593 57.778 767.875 60.288 761.560 67.039 L 757.000 71.914 757.000 39.457 L 757.000 7.000 743.000 7.000 L 729.000 7.000 729.000 96.500 M 774.853 81.344 C 778.088 84.788 779.015 91.102 779.649 114.000 C 780.279 136.757 779.121 154.382 776.598 160.421 C 774.553 165.315 769.874 167.579 764.891 166.086 C 762.810 165.462 760.183 163.777 759.054 162.341 C 757.073 159.822 757.000 158.516 757.000 125.333 C 757.000 87.952 757.134 86.919 762.627 81.847 C 767.173 77.650 771.227 77.483 774.853 81.344 "/></g>
<g fill="#FAFAFAFF" stroke="#FAFAFAFF">
<path d="M 430.567 58.078 C 413.048 60.080 403.738 70.756 399.946 93.194 C 398.267 103.124 399.234 154.888 401.221 161.500 C 404.686 173.028 409.793 180.323 416.956 183.978 C 426.145 188.665 445.292 189.201 456.157 185.075 C 462.728 182.579 469.065 176.347 472.003 169.492 C 476.364 159.319 477.319 150.969 477.319 123.000 C 477.319 94.092 476.268 85.681 471.359 75.298 C 464.995 61.835 450.655 55.782 430.567 58.078 M 443.444 80.353 C 447.518 84.427 448.153 91.098 447.813 126.212 C 447.517 156.713 447.384 158.721 445.406 162.500 C 441.467 170.021 434.546 169.550 430.500 161.486 C 428.617 157.734 428.500 155.505 428.500 123.500 C 428.500 87.477 428.875 84.057 433.282 79.952 C 436.135 77.294 440.560 77.469 443.444 80.353 "/></g>
<g fill="#FAFAFAFF" stroke="#FAFAFAFF">
<path d="M 842.590 60.477 C 831.632 64.982 825.452 73.909 822.458 89.557 C 820.420 100.210 820.420 145.790 822.458 156.443 C 825.479 172.236 832.278 181.853 843.079 185.613 C 851.299 188.474 868.454 188.191 876.407 185.063 C 888.125 180.453 894.787 170.131 895.167 156.000 C 895.270 152.162 895.125 148.792 894.844 148.511 C 894.564 148.231 888.925 147.710 882.313 147.355 L 870.291 146.708 869.573 153.061 C 869.177 156.555 868.267 160.818 867.550 162.535 C 865.880 166.532 861.193 168.623 856.717 167.368 C 851.585 165.929 850.056 161.537 849.318 146.116 L 848.691 133.000 872.346 133.000 L 896.000 133.000 895.994 113.750 C 895.985 84.579 893.843 74.870 885.537 66.353 C 879.039 59.690 873.639 57.991 859.068 58.024 C 850.200 58.044 847.549 58.438 842.590 60.477 M 865.227 81.092 C 867.493 84.140 868.921 93.740 868.967 106.250 L 869.000 115.000 858.847 115.000 L 848.694 115.000 849.274 100.750 C 850.072 81.142 851.653 77.621 859.400 78.206 C 862.226 78.419 863.831 79.214 865.227 81.092 "/></g>
<g fill="#FAFAFAFF" stroke="#FAFAFAFF">
<path d="M 491.008 109.250 C 491.012 137.520 491.447 161.269 492.028 165.000 C 492.585 168.575 494.273 173.953 495.778 176.952 C 498.055 181.486 499.440 182.890 504.008 185.296 C 509.034 187.943 510.178 188.152 517.500 187.767 C 522.992 187.477 526.768 186.691 529.545 185.257 C 533.791 183.065 542.000 174.891 542.000 172.856 C 542.000 169.672 543.614 173.844 544.501 179.319 L 545.503 185.500 557.251 185.782 L 569.000 186.063 569.000 123.032 L 569.000 60.000 554.000 60.000 L 539.000 60.000 539.000 110.396 L 539.000 160.793 535.403 163.951 C 530.753 168.034 525.761 167.928 522.599 163.678 C 520.542 160.913 520.494 159.838 520.184 110.428 L 519.868 60.000 505.434 60.000 L 491.000 60.000 491.008 109.250 "/></g>
<g fill="#FAFAFAFF" stroke="#FAFAFAFF">
<path d="M 636.000 111.790 C 636.000 168.403 636.265 171.503 641.775 179.411 C 645.985 185.453 650.857 187.500 661.029 187.500 C 671.679 187.500 677.426 184.897 683.661 177.248 C 688.377 171.462 687.930 171.119 689.534 181.750 L 690.176 186.000 701.588 186.000 L 713.000 186.000 713.000 123.000 L 713.000 60.000 698.500 60.000 L 684.000 60.000 684.000 110.326 L 684.000 160.651 681.750 162.701 C 676.081 167.864 670.048 168.528 667.273 164.295 C 665.644 161.811 665.477 157.452 665.215 110.795 L 664.930 60.000 650.465 60.000 L 636.000 60.000 636.000 111.790 "/></g>
<g fill="#FAFAFAFF" stroke="#FAFAFAFF">
<path d="M 314.006 16.750 C 314.503 18.263 321.904 44.821 330.454 75.768 L 346.000 132.036 346.000 159.018 L 346.000 186.000 360.000 186.000 L 374.000 186.000 374.000 158.753 L 374.000 131.506 390.108 74.053 C 398.967 42.454 406.445 16.003 406.725 15.273 C 407.138 14.199 404.412 13.998 392.442 14.223 L 377.650 14.500 372.862 36.000 C 366.300 65.469 361.000 91.327 361.000 93.878 C 361.000 97.652 359.280 96.126 358.706 91.842 C 358.399 89.556 354.643 71.106 350.359 50.842 L 342.570 14.000 327.837 14.000 L 313.104 14.000 314.006 16.750 "/></g>
<g fill="#FAFAFAFF" stroke="#FAFAFAFF">
<path d="M 561.000 25.500 L 561.000 37.000 575.000 37.000 L 589.000 37.000 589.000 111.500 L 589.000 186.000 603.000 186.000 L 617.000 186.000 617.000 111.500 L 617.000 37.000 631.000 37.000 L 645.000 37.000 645.000 25.500 L 645.000 14.000 603.000 14.000 L 561.000 14.000 561.000 25.500 "/></g>
<g fill="#FAFAFAFF" stroke="#FAFAFAFF">
<path d="M 115.000 99.441 C 115.000 132.334 115.264 141.000 116.268 141.000 C 116.965 141.000 119.143 139.908 121.107 138.573 C 123.071 137.239 126.438 135.153 128.589 133.939 C 130.740 132.724 135.875 129.834 140.000 127.516 C 144.125 125.198 153.575 119.783 161.000 115.483 C 168.425 111.183 177.308 106.053 180.741 104.082 C 184.173 102.112 186.981 100.275 186.980 100.000 C 186.980 99.725 182.372 96.852 176.740 93.616 C 171.108 90.380 162.225 85.255 157.000 82.228 C 151.775 79.201 144.125 74.822 140.000 72.497 C 135.875 70.172 130.842 67.333 128.815 66.188 C 126.789 65.044 123.414 63.039 121.315 61.733 C 119.217 60.428 116.938 59.027 116.250 58.621 C 115.258 58.035 115.000 66.467 115.000 99.441 "/></g>
</svg>
